<?xml version="1.0" encoding="utf-8"?>
<!-- Generator: Adobe Illustrator 15.1.0, SVG Export Plug-In . SVG Version: 6.00 Build 0)  -->
<!DOCTYPE svg PUBLIC "-//W3C//DTD SVG 1.1//EN" "http://www.w3.org/Graphics/SVG/1.1/DTD/svg11.dtd">
<svg version="1.1" id="Layer_1" xmlns="http://www.w3.org/2000/svg" xmlns:xlink="http://www.w3.org/1999/xlink" x="0px" y="0px"
	 width="820.339px" height="166.102px" viewBox="0 0 820.339 166.102" enable-background="new 0 0 820.339 166.102"
	 xml:space="preserve">
<g>
	<g>
		<defs>
			<path id="SVGID_1_" d="M70.706,75.722c0,10.878,9.229,19.794,20.967,20.665c-0.024,2.171-0.779,4.462-2.922,6.535
				c3.334,0.091,7.005-3.139,8.872-6.793c10.678-1.743,18.783-10.215,18.783-20.407c0-11.455-10.231-20.741-22.85-20.741
				C80.936,54.981,70.706,64.267,70.706,75.722"/>
		</defs>
		<clipPath id="SVGID_2_">
			<use xlink:href="#SVGID_1_"  overflow="visible"/>
		</clipPath>
		
			<linearGradient id="SVGID_3_" gradientUnits="userSpaceOnUse" x1="-295.1558" y1="459.458" x2="-294.1558" y2="459.458" gradientTransform="matrix(30.8572 30.8572 30.8572 -30.8572 -4993.4492 23347.2188)">
			<stop  offset="0" style="stop-color:#A2CD4A"/>
			<stop  offset="0.35" style="stop-color:#A2CD4A"/>
			<stop  offset="0.6734" style="stop-color:#7AC799"/>
			<stop  offset="1" style="stop-color:#35C3E0"/>
		</linearGradient>
		<polygon clip-path="url(#SVGID_2_)" fill="url(#SVGID_3_)" points="93.556,32.131 140.422,78.996 93.556,125.863 46.69,78.996 		
			"/>
	</g>
	<g>
		<defs>
			<path id="SVGID_4_" d="M64.652,106.945c-7.613-7.754-11.42-17.623-11.42-29.327c0-11.702,3.807-21.431,11.42-29.185
				c7.755-7.754,17.342-11.702,28.904-11.702c11.561,0,21.148,3.948,28.762,11.702c7.613,7.754,11.42,17.483,11.42,29.185
				c0,11.704-3.807,21.573-11.42,29.327c-7.614,7.754-17.201,11.562-28.762,11.562C81.994,118.507,72.407,114.699,64.652,106.945
				 M57.179,41.244c-9.868,9.728-14.804,21.854-14.804,36.375c0,14.522,4.936,26.79,14.804,36.517
				c10.011,9.729,22.137,14.522,36.377,14.522c14.239,0,26.365-4.793,36.235-14.522c10.01-9.728,14.945-21.995,14.945-36.517
				c0-14.521-4.935-26.647-14.945-36.375c-9.87-9.728-21.996-14.664-36.235-14.664C79.316,26.58,67.19,31.516,57.179,41.244"/>
		</defs>
		<clipPath id="SVGID_5_">
			<use xlink:href="#SVGID_4_"  overflow="visible"/>
		</clipPath>
		
			<linearGradient id="SVGID_6_" gradientUnits="userSpaceOnUse" x1="-297.6426" y1="461.459" x2="-296.6429" y2="461.459" gradientTransform="matrix(72.7564 72.7564 72.7564 -72.7564 -11861.5762 55270.7422)">
			<stop  offset="0" style="stop-color:#A2CD4A"/>
			<stop  offset="0.35" style="stop-color:#A2CD4A"/>
			<stop  offset="0.6734" style="stop-color:#7AC799"/>
			<stop  offset="1" style="stop-color:#35C3E0"/>
		</linearGradient>
		<polygon clip-path="url(#SVGID_5_)" fill="url(#SVGID_6_)" points="93.556,-24.601 195.775,77.619 93.556,179.838 -8.664,77.619 
					"/>
	</g>
	<path fill="#69BD45" d="M652.623,114.631c2.819-2.819,7.05-2.819,9.869,0c2.82,2.679,2.82,7.19,0,10.011
		c-2.819,2.678-7.05,2.678-9.869,0C649.803,121.821,649.803,117.31,652.623,114.631"/>
	<path fill="#223D44" d="M158.432,54.638h10.434v43.144c0,11.844,6.767,19.315,17.624,19.315c11.279,0,19.315-8.177,19.315-20.021
		V54.638h10.434v54.563c0,6.203,1.409,8.883,5.357,8.883c1.128,0,2.397-0.141,3.666-0.282v7.896
		c-1.551,0.705-3.666,1.129-6.627,1.129c-3.807,0-6.767-1.129-8.741-3.244c-1.692-1.832-2.82-4.088-3.243-7.049
		c-4.511,6.908-12.125,10.293-22.699,10.293c-15.65,0-25.52-10.576-25.52-26.789V54.638z"/>
	<path fill="#223D44" d="M239.506,64.366h-8.319v-9.729h8.319V27.426h10.433v27.211h16.496v9.729h-16.496v41.451
		c0,9.024,2.961,12.267,9.87,12.267c2.678,0,4.793-0.141,6.626-0.424v9.024c-1.551,0.704-4.229,1.128-7.895,1.128
		c-12.69,0-19.034-7.332-19.034-21.995V64.366z"/>
	<path fill="#223D44" d="M283.215,106.945c1.833,6.062,8.177,10.715,17.906,10.715c11.702,0,15.65-5.357,15.65-10.855
		c0-3.525-1.269-6.203-3.948-8.036c-2.538-1.833-7.191-4.089-13.817-6.769c-12.971-5.076-19.316-10.433-19.316-20.725
		c0-10.857,8.882-18.752,21.431-18.752c9.587,0,16.496,4.089,20.585,12.266l-8.46,4.37c-2.538-4.652-6.486-7.049-11.984-7.049
		c-6.627,0-11.138,3.384-11.138,9.165c0,5.78,4.793,8.741,15.508,12.83c14.664,5.639,21.572,11.843,21.572,22.699
		c0,11.279-9.164,20.585-26.083,20.585c-13.535,0-23.969-6.204-26.788-17.06L283.215,106.945z"/>
	<path fill="#223D44" d="M339.613,152.909V54.638h10.433v10.574c4.089-7.191,12.406-12.689,25.238-12.689
		c10.01,0,18.609,3.665,25.519,10.856c6.908,7.191,10.434,16.073,10.434,26.788c0,10.716-3.525,19.739-10.434,26.931
		c-6.909,7.19-15.509,10.715-25.519,10.715c-12.832,0-21.149-5.5-25.238-12.689v37.786H339.613z M393.471,110.188
		c4.936-5.356,7.332-11.983,7.332-20.021c0-8.036-2.396-14.663-7.332-19.879c-4.793-5.358-10.856-8.037-18.187-8.037
		c-7.614,0-13.959,2.679-19.036,8.037c-4.934,5.216-7.472,11.843-7.472,19.879c0,8.037,2.538,14.664,7.472,20.021
		c5.077,5.217,11.421,7.896,19.036,7.896C382.614,118.084,388.678,115.404,393.471,110.188"/>
	<path fill="#223D44" d="M422.518,90.168c0-10.715,3.666-19.599,10.996-26.789c7.333-7.191,16.215-10.857,26.789-10.857
		c10.575,0,19.457,3.666,26.789,10.857c7.331,7.19,10.997,16.074,10.997,26.789s-3.666,19.738-10.997,26.929
		c-7.332,7.19-16.214,10.716-26.789,10.716c-10.574,0-19.456-3.525-26.789-10.716C426.184,109.906,422.518,100.883,422.518,90.168
		 M432.951,90.168c0,8.037,2.537,14.662,7.754,20.021c5.217,5.216,11.702,7.896,19.598,7.896s14.381-2.68,19.599-7.896
		c5.216-5.358,7.754-11.983,7.754-20.021s-2.538-14.664-7.754-19.88c-5.218-5.357-11.703-8.036-19.599-8.036
		s-14.381,2.679-19.598,8.036C435.488,75.504,432.951,82.131,432.951,90.168"/>
	<polygon fill="#223D44" points="512.472,125.697 512.472,27.426 522.904,27.426 522.904,89.744 553.358,54.637 565.343,54.637 
		538.414,85.797 569.149,125.697 556.742,125.697 531.786,93.27 522.904,103.562 522.904,125.697 	"/>
	<path fill="#223D44" d="M572.959,90.449c0-11.42,3.384-20.584,10.011-27.494c6.626-6.908,15.227-10.433,25.519-10.433
		c9.729,0,17.483,3.384,23.546,10.292c6.062,6.768,9.164,15.087,9.164,25.097c0,1.551,0,3.101-0.141,4.512h-57.665
		c0.564,15.648,10.574,25.66,25.378,25.66c9.728,0,15.509-3.102,21.853-9.869l6.91,6.768c-7.473,8.318-17.061,12.547-28.763,12.547
		c-10.574,0-19.315-3.383-25.942-10.01c-6.626-6.627-9.869-15.509-9.869-26.507V90.449z M630.061,83.259
		c0-5.781-2.115-10.715-6.345-14.804c-4.229-4.089-9.306-6.203-15.228-6.203c-6.485,0-12.125,2.114-16.777,6.203
		c-4.653,4.089-7.19,9.023-7.613,14.804H630.061z"/>
	<path fill="#223D44" d="M680.68,40.821c-2.82-2.82-2.82-7.332,0-10.011c2.819-2.819,7.05-2.819,9.869,0
		c2.82,2.679,2.82,7.191,0,10.011C687.729,43.5,683.499,43.5,680.68,40.821 M680.397,54.638h10.434v55.833
		c0,5.216,1.41,7.473,5.357,7.473c1.128,0,2.396-0.142,3.666-0.283v8.602c-1.692,0.705-3.948,1.127-6.627,1.127
		c-8.602,0-12.83-5.075-12.83-15.085V54.638z"/>
	<path fill="#223D44" d="M711.557,125.697v-71.06h10.434v11.985c3.807-7.896,11.843-13.113,22.418-13.113
		c15.932,0,25.942,10.575,25.942,26.79v29.325c0,5.781,0.846,7.472,4.935,7.472c0.705,0,1.551-0.141,2.679-0.28v8.6
		c-1.128,0.423-2.679,0.705-4.511,0.705c-5.5,0-13.536-1.551-13.536-15.791V82.555c0-11.844-6.909-19.316-18.188-19.316
		c-11.702,0-19.738,8.177-19.738,20.021v42.438H711.557z"/>
	<path fill="#223D44" d="M375.405,52.337c-19.768,0-35.792,16.937-35.792,37.831c0,20.893,16.025,37.831,35.792,37.831
		s35.792-16.938,35.792-37.831C411.197,69.274,395.173,52.337,375.405,52.337 M375.682,117.713
		c-14.159,0-25.636-12.333-25.636-27.545c0-15.213,11.477-27.545,25.636-27.545s25.636,12.332,25.636,27.545
		C401.317,105.38,389.841,117.713,375.682,117.713"/>
</g>
</svg>
